<svg width="802" height="563" viewBox="0 0 802 563" fill="none" xmlns="http://www.w3.org/2000/svg">
<rect x="27" y="29" width="775" height="534" fill="#111827"/>
<rect x="2" y="2" width="769" height="531" fill="white" stroke="#111827" stroke-width="4"/>
<rect width="773" height="72" fill="#111827"/>
<circle cx="29.5" cy="36.5" r="7.5" fill="#FF2F00"/>
<circle cx="59.5" cy="36.5" r="7.5" fill="#FDC62D"/>
<circle cx="89.5" cy="36.5" r="7.5" fill="#3AE352"/>
<path d="M40.7926 106.455V121H38.598V106.455H40.7926ZM45.9418 114.523V121H43.8182V110.091H45.8565V111.866H45.9915C46.2424 111.289 46.6354 110.825 47.1705 110.474C47.7102 110.124 48.3897 109.949 49.2088 109.949C49.9522 109.949 50.6032 110.105 51.1619 110.418C51.7206 110.725 52.1539 111.185 52.4616 111.795C52.7694 112.406 52.9233 113.161 52.9233 114.061V121H50.7997V114.317C50.7997 113.526 50.5938 112.908 50.1818 112.463C49.7699 112.013 49.2041 111.788 48.4844 111.788C47.992 111.788 47.554 111.895 47.1705 112.108C46.7917 112.321 46.491 112.634 46.2685 113.045C46.0507 113.453 45.9418 113.945 45.9418 114.523ZM64.7131 110.091L60.7571 121H58.4844L54.5213 110.091H56.8011L59.5639 118.486H59.6776L62.4332 110.091H64.7131ZM70.9329 121.22C69.9102 121.22 69.0176 120.986 68.2553 120.517C67.493 120.048 66.9012 119.393 66.4798 118.55C66.0584 117.707 65.8477 116.722 65.8477 115.595C65.8477 114.464 66.0584 113.474 66.4798 112.626C66.9012 111.779 67.493 111.121 68.2553 110.652C69.0176 110.183 69.9102 109.949 70.9329 109.949C71.9556 109.949 72.8481 110.183 73.6104 110.652C74.3728 111.121 74.9646 111.779 75.386 112.626C75.8074 113.474 76.0181 114.464 76.0181 115.595C76.0181 116.722 75.8074 117.707 75.386 118.55C74.9646 119.393 74.3728 120.048 73.6104 120.517C72.8481 120.986 71.9556 121.22 70.9329 121.22ZM70.94 119.438C71.6029 119.438 72.1521 119.262 72.5877 118.912C73.0233 118.562 73.3453 118.095 73.5536 117.513C73.7667 116.93 73.8732 116.289 73.8732 115.588C73.8732 114.892 73.7667 114.253 73.5536 113.67C73.3453 113.083 73.0233 112.612 72.5877 112.257C72.1521 111.902 71.6029 111.724 70.94 111.724C70.2724 111.724 69.7184 111.902 69.2781 112.257C68.8424 112.612 68.5181 113.083 68.305 113.67C68.0967 114.253 67.9925 114.892 67.9925 115.588C67.9925 116.289 68.0967 116.93 68.305 117.513C68.5181 118.095 68.8424 118.562 69.2781 118.912C69.7184 119.262 70.2724 119.438 70.94 119.438ZM78.3885 121V110.091H80.5121V121H78.3885ZM79.4609 108.408C79.0916 108.408 78.7744 108.285 78.5092 108.038C78.2488 107.787 78.1186 107.489 78.1186 107.143C78.1186 106.793 78.2488 106.495 78.5092 106.249C78.7744 105.998 79.0916 105.872 79.4609 105.872C79.8303 105.872 80.1451 105.998 80.4055 106.249C80.6707 106.495 80.8033 106.793 80.8033 107.143C80.8033 107.489 80.6707 107.787 80.4055 108.038C80.1451 108.285 79.8303 108.408 79.4609 108.408ZM87.9641 121.22C86.9083 121.22 85.9992 120.981 85.2369 120.503C84.4793 120.02 83.8969 119.355 83.4897 118.507C83.0825 117.66 82.8789 116.689 82.8789 115.595C82.8789 114.487 83.0872 113.509 83.5039 112.662C83.9206 111.81 84.5077 111.144 85.2653 110.666C86.0228 110.188 86.9154 109.949 87.9428 109.949C88.7714 109.949 89.5101 110.103 90.1587 110.411C90.8074 110.714 91.3306 111.14 91.7283 111.689C92.1308 112.238 92.3699 112.88 92.4457 113.614H90.3789C90.2653 113.102 90.0049 112.662 89.5977 112.293C89.1952 111.923 88.6554 111.739 87.9783 111.739C87.3865 111.739 86.868 111.895 86.4229 112.207C85.9826 112.515 85.6393 112.955 85.3931 113.528C85.1469 114.097 85.0238 114.769 85.0238 115.545C85.0238 116.341 85.1445 117.027 85.386 117.605C85.6275 118.183 85.9684 118.63 86.4087 118.947C86.8538 119.265 87.377 119.423 87.9783 119.423C88.3808 119.423 88.7454 119.35 89.0721 119.203C89.4035 119.052 89.6805 118.836 89.9031 118.557C90.1303 118.277 90.2889 117.941 90.3789 117.548H92.4457C92.3699 118.254 92.1403 118.884 91.7567 119.438C91.3732 119.991 90.8595 120.427 90.2156 120.744C89.5763 121.062 88.8259 121.22 87.9641 121.22ZM99.4183 121.22C98.3435 121.22 97.4179 120.991 96.6413 120.531C95.8696 120.067 95.273 119.416 94.8516 118.578C94.4349 117.735 94.2266 116.748 94.2266 115.616C94.2266 114.499 94.4349 113.514 94.8516 112.662C95.273 111.81 95.8601 111.144 96.6129 110.666C97.3705 110.188 98.2559 109.949 99.2692 109.949C99.8847 109.949 100.481 110.051 101.059 110.254C101.637 110.458 102.155 110.777 102.614 111.213C103.074 111.649 103.436 112.214 103.701 112.911C103.966 113.602 104.099 114.442 104.099 115.432V116.185H95.4268V114.594H102.018C102.018 114.035 101.904 113.54 101.677 113.109C101.45 112.674 101.13 112.33 100.718 112.08C100.311 111.829 99.8326 111.703 99.2834 111.703C98.6868 111.703 98.166 111.85 97.7209 112.143C97.2805 112.432 96.9396 112.811 96.6982 113.28C96.4614 113.744 96.343 114.248 96.343 114.793V116.036C96.343 116.765 96.4709 117.385 96.7266 117.896C96.987 118.408 97.3492 118.798 97.8132 119.068C98.2772 119.333 98.8194 119.466 99.4396 119.466C99.8421 119.466 100.209 119.409 100.54 119.295C100.872 119.177 101.158 119.002 101.4 118.77C101.641 118.538 101.826 118.251 101.954 117.911L103.964 118.273C103.803 118.865 103.514 119.383 103.097 119.828C102.685 120.268 102.167 120.612 101.542 120.858C100.922 121.099 100.214 121.22 99.4183 121.22ZM114.63 112.754L112.705 113.095C112.624 112.849 112.497 112.615 112.321 112.392C112.151 112.17 111.919 111.987 111.625 111.845C111.332 111.703 110.965 111.632 110.525 111.632C109.923 111.632 109.421 111.767 109.019 112.037C108.616 112.302 108.415 112.645 108.415 113.067C108.415 113.431 108.55 113.725 108.82 113.947C109.09 114.17 109.525 114.352 110.127 114.494L111.86 114.892C112.864 115.124 113.612 115.482 114.104 115.964C114.596 116.447 114.843 117.075 114.843 117.847C114.843 118.5 114.653 119.082 114.275 119.594C113.9 120.1 113.377 120.498 112.705 120.787C112.037 121.076 111.263 121.22 110.382 121.22C109.161 121.22 108.164 120.96 107.392 120.439C106.621 119.913 106.147 119.168 105.972 118.202L108.025 117.889C108.152 118.424 108.415 118.829 108.813 119.104C109.211 119.374 109.729 119.509 110.368 119.509C111.064 119.509 111.621 119.364 112.037 119.075C112.454 118.782 112.662 118.424 112.662 118.003C112.662 117.662 112.534 117.375 112.279 117.143C112.028 116.911 111.642 116.736 111.121 116.618L109.275 116.213C108.257 115.981 107.504 115.612 107.016 115.105C106.533 114.598 106.292 113.957 106.292 113.18C106.292 112.536 106.471 111.973 106.831 111.49C107.191 111.007 107.688 110.631 108.323 110.361C108.957 110.086 109.684 109.949 110.503 109.949C111.682 109.949 112.61 110.205 113.287 110.716C113.964 111.223 114.412 111.902 114.63 112.754Z" fill="black"/>
<rect x="35" y="206" width="340" height="37" fill="#D9D9D9"/>
<rect x="35" y="323" width="702" height="207" fill="#D9D9D9"/>
<rect x="35" y="354" width="702" height="176" fill="#F7F7F7"/>
<rect x="35" y="153" width="340" height="37" fill="#D9D9D9"/>
<rect x="397" y="206" width="340" height="37" fill="#D9D9D9"/>
<rect x="670" y="259" width="67" height="32" fill="#D9D9D9"/>
<rect x="397" y="153" width="340" height="37" fill="#D9D9D9"/>
<line x1="35.5" y1="323.002" x2="34.5" y2="530.002" stroke="#D9D9D9"/>
<line x1="737.5" y1="323.002" x2="736.5" y2="530.002" stroke="#D9D9D9"/>
<line x1="704.5" y1="323.002" x2="703.5" y2="530.002" stroke="#D9D9D9"/>
<line x1="484.5" y1="323.002" x2="483.5" y2="530.002" stroke="#D9D9D9"/>
<line x1="67.5" y1="323.002" x2="66.5" y2="530.002" stroke="#D9D9D9"/>
<line x1="275.5" y1="323.002" x2="274.5" y2="530.002" stroke="#D9D9D9"/>
<line x1="35" y1="411.5" x2="737" y2="411.5" stroke="#D9D9D9"/>
<line x1="35" y1="383.5" x2="737.001" y2="383.5" stroke="#D9D9D9"/>
<line x1="35" y1="440.5" x2="737" y2="440.5" stroke="#D9D9D9"/>
<line x1="35" y1="498.5" x2="737" y2="498.5" stroke="#D9D9D9"/>
<line x1="34" y1="527.5" x2="737" y2="527.5" stroke="#D9D9D9"/>
<line x1="35" y1="469.5" x2="737" y2="469.5" stroke="#D9D9D9"/>
</svg>
