<svg width="634" height="572" viewBox="0 0 634 572" fill="none" xmlns="http://www.w3.org/2000/svg">
<rect x="161" y="2" width="318.887" height="219.473" fill="white" stroke="#111827" stroke-width="4"/>
<rect x="159" width="322.887" height="30.0748" fill="#111827"/>
<circle cx="171.322" cy="15.2463" r="3.13279" fill="#FF2F00"/>
<circle cx="183.854" cy="15.2463" r="3.13279" fill="#FDC62D"/>
<circle cx="196.385" cy="15.2463" r="3.13279" fill="#3AE352"/>
<path d="M177.376 46.3974V56.5792H175.84V46.3974H177.376ZM180.981 52.0451V56.5792H179.494V48.9429H180.921V50.1858H181.016C181.191 49.7814 181.466 49.4566 181.841 49.2113C182.219 48.9661 182.694 48.8434 183.268 48.8434C183.788 48.8434 184.244 48.9528 184.635 49.1716C185.026 49.387 185.329 49.7085 185.545 50.136C185.76 50.5636 185.868 51.0922 185.868 51.722V56.5792H184.381V51.901C184.381 51.3475 184.237 50.9149 183.949 50.6034C183.66 50.2885 183.264 50.1311 182.761 50.1311C182.416 50.1311 182.109 50.2056 181.841 50.3548C181.576 50.5039 181.365 50.7227 181.209 51.011C181.057 51.2961 180.981 51.6408 180.981 52.0451ZM194.121 48.9429L191.352 56.5792H189.761L186.986 48.9429H188.582L190.516 54.8193H190.596L192.525 48.9429H194.121ZM198.475 56.7333C197.759 56.7333 197.134 56.5693 196.6 56.2412C196.067 55.913 195.652 55.454 195.357 54.864C195.062 54.2741 194.915 53.5847 194.915 52.7958C194.915 52.0037 195.062 51.311 195.357 50.7177C195.652 50.1244 196.067 49.6637 196.6 49.3356C197.134 49.0075 197.759 48.8434 198.475 48.8434C199.19 48.8434 199.815 49.0075 200.349 49.3356C200.882 49.6637 201.297 50.1244 201.592 50.7177C201.887 51.311 202.034 52.0037 202.034 52.7958C202.034 53.5847 201.887 54.2741 201.592 54.864C201.297 55.454 200.882 55.913 200.349 56.2412C199.815 56.5693 199.19 56.7333 198.475 56.7333ZM198.48 55.4855C198.944 55.4855 199.328 55.3628 199.633 55.1176C199.938 54.8723 200.163 54.5458 200.309 54.1382C200.458 53.7305 200.533 53.2814 200.533 52.7909C200.533 52.3037 200.458 51.8562 200.309 51.4485C200.163 51.0376 199.938 50.7078 199.633 50.4592C199.328 50.2106 198.944 50.0863 198.48 50.0863C198.012 50.0863 197.624 50.2106 197.316 50.4592C197.011 50.7078 196.784 51.0376 196.635 51.4485C196.489 51.8562 196.416 52.3037 196.416 52.7909C196.416 53.2814 196.489 53.7305 196.635 54.1382C196.784 54.5458 197.011 54.8723 197.316 55.1176C197.624 55.3628 198.012 55.4855 198.48 55.4855ZM203.694 56.5792V48.9429H205.18V56.5792H203.694ZM204.444 47.7646C204.186 47.7646 203.964 47.6784 203.778 47.5061C203.596 47.3304 203.505 47.1216 203.505 46.8796C203.505 46.6344 203.596 46.4256 203.778 46.2532C203.964 46.0776 204.186 45.9897 204.444 45.9897C204.703 45.9897 204.923 46.0776 205.105 46.2532C205.291 46.4256 205.384 46.6344 205.384 46.8796C205.384 47.1216 205.291 47.3304 205.105 47.5061C204.923 47.6784 204.703 47.7646 204.444 47.7646ZM210.396 56.7333C209.657 56.7333 209.021 56.566 208.487 56.2312C207.957 55.8931 207.549 55.4275 207.264 54.8342C206.979 54.2409 206.837 53.5615 206.837 52.7958C206.837 52.0203 206.983 51.3359 207.274 50.7426C207.566 50.146 207.977 49.6803 208.507 49.3456C209.038 49.0108 209.662 48.8434 210.382 48.8434C210.962 48.8434 211.479 48.9511 211.933 49.1666C212.387 49.3787 212.753 49.677 213.031 50.0615C213.313 50.4459 213.48 50.895 213.534 51.4088H212.087C212.007 51.0508 211.825 50.7426 211.54 50.4841C211.258 50.2255 210.88 50.0963 210.406 50.0963C209.992 50.0963 209.629 50.2056 209.318 50.4244C209.009 50.6398 208.769 50.9481 208.597 51.3491C208.424 51.7468 208.338 52.2175 208.338 52.761C208.338 53.3179 208.423 53.7984 208.592 54.2028C208.761 54.6072 208.999 54.9204 209.308 55.1424C209.619 55.3645 209.985 55.4755 210.406 55.4755C210.688 55.4755 210.943 55.4242 211.172 55.3214C211.404 55.2154 211.598 55.0645 211.754 54.869C211.913 54.6734 212.024 54.4381 212.087 54.163H213.534C213.48 54.6569 213.32 55.0977 213.051 55.4855C212.783 55.8733 212.423 56.1782 211.972 56.4002C211.525 56.6223 211 56.7333 210.396 56.7333ZM218.414 56.7333C217.662 56.7333 217.014 56.5726 216.47 56.2511C215.93 55.9263 215.513 55.4706 215.218 54.8839C214.926 54.2939 214.78 53.6029 214.78 52.8108C214.78 52.0286 214.926 51.3392 215.218 50.7426C215.513 50.146 215.924 49.6803 216.451 49.3456C216.981 49.0108 217.601 48.8434 218.31 48.8434C218.741 48.8434 219.158 48.9147 219.563 49.0572C219.967 49.1997 220.33 49.4234 220.652 49.7284C220.973 50.0333 221.227 50.4294 221.412 50.9166C221.598 51.4005 221.691 51.9888 221.691 52.6815V53.2085H215.62V52.0948H220.234C220.234 51.7038 220.154 51.3574 219.995 51.0558C219.836 50.7509 219.613 50.5106 219.324 50.3349C219.039 50.1592 218.704 50.0714 218.32 50.0714C217.902 50.0714 217.538 50.1742 217.226 50.3796C216.918 50.5818 216.679 50.847 216.51 51.1751C216.345 51.4999 216.262 51.8529 216.262 52.2341V53.1041C216.262 53.6145 216.351 54.0487 216.53 54.4066C216.712 54.7646 216.966 55.038 217.291 55.227C217.616 55.4126 217.995 55.5054 218.429 55.5054C218.711 55.5054 218.968 55.4656 219.2 55.386C219.432 55.3032 219.632 55.1805 219.801 55.0181C219.97 54.8557 220.1 54.6552 220.189 54.4166L221.596 54.6701C221.484 55.0844 221.281 55.4474 220.99 55.7589C220.701 56.0671 220.338 56.3074 219.901 56.4798C219.467 56.6488 218.971 56.7333 218.414 56.7333ZM229.062 50.8072L227.715 51.0458C227.659 50.8735 227.569 50.7094 227.447 50.5537C227.327 50.3979 227.165 50.2703 226.959 50.1708C226.754 50.0714 226.497 50.0217 226.189 50.0217C225.768 50.0217 225.416 50.1162 225.135 50.3051C224.853 50.4907 224.712 50.731 224.712 51.026C224.712 51.2812 224.807 51.4867 224.996 51.6424C225.184 51.7982 225.489 51.9258 225.91 52.0252L227.123 52.3037C227.826 52.4661 228.35 52.7163 228.694 53.0544C229.039 53.3924 229.211 53.8316 229.211 54.3718C229.211 54.8292 229.079 55.2369 228.814 55.5948C228.552 55.9495 228.186 56.2279 227.715 56.4301C227.248 56.6323 226.706 56.7333 226.089 56.7333C225.234 56.7333 224.536 56.5511 223.996 56.1865C223.456 55.8186 223.125 55.2966 223.002 54.6204L224.439 54.4017C224.528 54.7762 224.712 55.0596 224.991 55.2518C225.269 55.4407 225.632 55.5352 226.079 55.5352C226.567 55.5352 226.956 55.4341 227.248 55.2319C227.539 55.0264 227.685 54.7762 227.685 54.4812C227.685 54.2426 227.596 54.0421 227.417 53.8796C227.241 53.7172 226.971 53.5946 226.606 53.5118L225.314 53.2284C224.601 53.066 224.074 52.8074 223.733 52.4528C223.395 52.0982 223.226 51.6491 223.226 51.1055C223.226 50.6547 223.352 50.2603 223.603 49.9223C223.855 49.5842 224.203 49.3207 224.648 49.1318C225.092 48.9395 225.6 48.8434 226.174 48.8434C226.999 48.8434 227.649 49.0224 228.123 49.3804C228.597 49.735 228.91 50.2106 229.062 50.8072Z" fill="black"/>
<rect x="173.62" y="134.919" width="293.229" height="86.4651" fill="#D9D9D9"/>
<rect x="173.62" y="147.868" width="293.229" height="73.5162" fill="#F7F7F7"/>
<rect x="174.455" y="63.4913" width="292.394" height="38.0112" fill="#D9D9D9"/>
<line x1="174.12" y1="134.921" x2="173.702" y2="221.386" stroke="#D9D9D9"/>
<line x1="467.349" y1="134.921" x2="466.931" y2="221.386" stroke="#D9D9D9"/>
<line x1="453.565" y1="134.921" x2="453.147" y2="221.386" stroke="#D9D9D9"/>
<line x1="361.67" y1="134.921" x2="361.252" y2="221.386" stroke="#D9D9D9"/>
<line x1="187.486" y1="134.921" x2="187.069" y2="221.386" stroke="#D9D9D9"/>
<line x1="274.369" y1="134.921" x2="273.951" y2="221.386" stroke="#D9D9D9"/>
<line x1="173.62" y1="171.595" x2="466.849" y2="171.595" stroke="#D9D9D9"/>
<line x1="173.62" y1="159.899" x2="466.849" y2="159.899" stroke="#D9D9D9"/>
<line x1="173.62" y1="183.708" x2="466.849" y2="183.708" stroke="#D9D9D9"/>
<line x1="173.62" y1="207.935" x2="466.849" y2="207.935" stroke="#D9D9D9"/>
<line x1="173.202" y1="220.049" x2="466.849" y2="220.049" stroke="#D9D9D9"/>
<line x1="173.62" y1="195.822" x2="466.849" y2="195.822" stroke="#D9D9D9"/>
<path d="M104.183 102.556C104.183 102.556 97.3043 103.099 96.7126 112.615C96.121 122.131 96.0717 149.743 108.99 151.444C121.909 153.145 112.614 106.082 112.614 106.082L104.183 102.556Z" fill="#1C2226"/>
<path d="M149.052 111.069C149.052 111.069 154.278 125.64 143.85 128.302C133.397 130.965 135.344 109.837 135.344 109.837L149.052 111.069Z" fill="#1C2226"/>
<path d="M89.6364 202.595L57.3156 248.155L59.1153 243.89L44.2002 310.75L27.5835 307.644L37.864 239.92C38.0859 238.441 38.6529 237.11 39.4418 235.976L39.6637 235.655L71.9845 190.096L89.6364 202.595Z" fill="#FCC9A7"/>
<path d="M31.8248 331.25C23.3193 328.71 18.5119 319.737 21.0512 311.256C23.5905 302.75 32.5644 297.943 41.0452 300.482C49.5507 303.021 54.3581 311.995 51.8188 320.476C49.2795 328.957 40.3303 333.789 31.8248 331.25Z" fill="#FCC9A7"/>
<path d="M159.604 201.036L180.041 263.508L169.071 256.062L235.635 254.263L236.695 271.15L170.427 277.683C165.496 278.176 161.058 275.119 159.579 270.608L159.456 270.238L139.018 207.766L159.604 201.036Z" fill="#FCC9A7"/>
<path d="M155.979 520.575L165.989 548.163L180.633 534.998L171.289 512.883L155.979 520.575Z" fill="#FCC9A7"/>
<path d="M160.195 541.78C160.195 540.424 161.354 539.536 162.512 540.029C164.78 540.991 168.552 541.829 173.015 539.832C177.674 537.737 178.537 534.31 178.537 532.042C178.537 530.858 179.375 529.971 180.46 530.119L214.556 535.025C216.627 535.321 218.574 536.529 219.955 538.378C221.262 540.103 220.645 542.643 218.821 543.185L167.911 558.667C165.915 559.284 163.745 557.829 163.153 555.512L160.269 544.122C160.22 543.925 160.195 543.727 160.195 543.555V541.78Z" fill="#1F252A"/>
<path d="M22.8503 501.829L11.7562 523.548L24.6746 534.593L38.6285 508.534L22.8503 501.829Z" fill="#FCC9A7"/>
<path d="M9.43888 518.771C10.4743 517.908 11.9042 518.204 12.274 519.412C13.0136 521.778 14.7887 525.181 19.2263 527.301C23.8365 529.495 27.0169 527.917 28.7427 526.463C29.6548 525.698 30.8875 525.772 31.4545 526.684L49.7968 555.849C50.9062 557.625 51.2513 559.868 50.7336 562.112C50.2652 564.232 47.9478 565.39 46.3206 564.355L1.54972 535.56C-0.200677 534.426 -0.52117 531.837 0.859427 529.889L7.6885 520.324C7.81177 520.176 7.93497 520.028 8.08289 519.905L9.43888 518.771Z" fill="#1F252A"/>
<path d="M144.663 298.109L100.878 419.577L38.8991 522.284L11.2626 508.626L66.3631 406.24L96.5884 303.828L144.663 298.109Z" fill="#092330"/>
<path d="M77.0142 299.903C77.0142 299.903 68.7306 315.558 81.5997 340.582L121.563 416.836L152.01 532.411L182.26 521.86L153.317 404.977L122.031 313.783L144.688 298.128L77.0142 299.903Z" fill="#0C2C40"/>
<path d="M114.709 164.941L80.613 171.943C76.5945 172.757 73.0441 175.074 70.6527 178.402L48.9579 208.627L77.9504 227.586L67.4971 310.348C67.4971 310.348 79.3061 346.489 151.344 317.67C151.344 317.67 145.131 249.084 149.298 204.412L147.177 175L114.709 164.941Z" fill="#DF945B"/>
<path d="M147.202 174.976L152.873 177.047C157.557 178.748 161.206 182.52 162.759 187.278L174.568 223.297L139.856 229.707L147.202 174.976Z" fill="#DF945B"/>
<path d="M257.774 257.898C257.774 266.773 250.575 273.972 241.7 273.972C232.825 273.972 225.651 266.773 225.651 257.898C225.651 249.023 232.85 241.849 241.7 241.849C250.575 241.849 257.774 249.023 257.774 257.898Z" fill="#FCC9A7"/>
<path d="M124.349 175.372L120.479 177.517C112.96 176.9 105.884 175.298 106.5 167.779L108.3 145.738L135.542 147.982L133.742 170.022C133.126 177.541 131.869 175.988 124.349 175.372Z" fill="#FCC9A7"/>
<path d="M107.929 148.401C107.929 148.401 111.676 164.722 125.384 164.155C137.365 163.637 136.231 145.738 136.231 145.738L107.929 148.401Z" fill="#F4BE9A"/>
<path d="M123.042 158.359L120.725 158.112C109.137 156.855 100.756 146.451 101.988 134.839L103.418 121.625C104.675 110.038 115.079 101.656 126.691 102.888L129.008 103.135C140.595 104.392 148.978 114.796 147.745 126.408L146.315 139.622C145.058 151.209 134.654 159.592 123.042 158.359Z" fill="#FCC9A7"/>
<path d="M79.9482 221.829L88.7249 211.475" stroke="#CE804A" stroke-width="0.7693" stroke-miterlimit="10" stroke-linecap="round" stroke-linejoin="round"/>
<path d="M147.992 228.208L149.323 206.833" stroke="#CE804A" stroke-width="0.7693" stroke-miterlimit="10" stroke-linecap="round" stroke-linejoin="round"/>
<path d="M124.349 175.376L107.043 164.923C99.6466 161.841 94.9377 168.991 94.9377 168.991L115.548 189.207L124.349 175.376Z" fill="#EDA472"/>
<path d="M124.349 175.378L132.731 188.345L141.113 173.085C141.113 173.085 137.809 167.883 133.298 169.091L124.349 175.378Z" fill="#EDA472"/>
<path d="M169.514 258.561H274.267C276.017 258.561 277.422 257.155 277.422 255.405C277.422 253.655 276.017 252.249 274.267 252.249H169.514C167.764 252.249 166.358 253.655 166.358 255.405C166.358 257.131 167.764 258.561 169.514 258.561Z" fill="#D1D1D1"/>
<path d="M277.422 254.587L289.946 193.742C290.267 192.238 289.108 190.808 287.555 190.808H223.826C222.667 190.808 221.656 191.622 221.434 192.781L209.083 254.612H277.422V254.587Z" fill="#D1D1D1"/>
<path d="M282.871 195.45L271.185 250.649H213.397L225.083 195.45H282.871Z" fill="#EFEFEF"/>
<path d="M104.798 131.689H111.874L113.255 123.923C113.255 123.923 120.651 119.954 119.221 112.287C119.221 112.287 150.358 123.455 155.215 111.029C161.625 94.6346 138.377 90.5669 119.221 91.0353C100.065 91.479 101.446 115.935 101.446 115.935L104.798 131.689Z" fill="#1C2226"/>
<path d="M108.94 130.13C108.497 134.272 104.774 137.255 100.632 136.811C96.4903 136.368 93.5072 132.645 93.951 128.503C94.3947 124.361 98.1174 121.378 102.259 121.822C106.401 122.266 109.384 125.989 108.94 130.13Z" fill="#FCC9A7"/>
<path d="M532.361 571.742C539.144 571.948 545.928 571.742 552.711 571.536C571.623 570.963 590.576 570.386 609.488 569.81C612.448 569.727 616.23 568.947 616.477 566.275C616.682 563.89 613.722 562.411 611.173 561.71C602.128 559.244 592.631 558.834 583.217 558.503C569.362 558.011 555.548 557.601 541.693 557.312C533.06 557.148 524.179 557.025 516.08 559.739C511.681 561.217 505.144 567.386 512.092 570.303C514.025 571.127 517.931 570.715 520.027 570.921C524.097 571.291 528.209 571.62 532.361 571.742Z" fill="url(#paint0_linear_3_116)"/>
<path opacity="0.22" d="M532.358 571.742C539.142 571.948 545.925 571.742 552.709 571.536C571.621 570.963 590.573 570.386 609.485 569.81C612.445 569.727 616.228 568.947 616.474 566.275C616.68 563.89 613.72 562.411 611.171 561.71C602.126 559.244 592.629 558.834 583.214 558.503C569.359 558.011 555.546 557.601 541.691 557.312C533.057 557.148 524.177 557.025 516.078 559.739C511.679 561.217 505.142 567.386 512.09 570.303C514.022 571.127 517.928 570.715 520.025 570.921C524.095 571.291 528.206 571.62 532.358 571.742Z" fill="url(#paint1_linear_3_116)"/>
<path d="M423.046 205.768C420.251 207.412 420.333 210.907 423.211 212.51C443.603 223.775 462.925 235.204 481.344 246.757C483.728 248.237 486.524 249.799 489.278 249.059C491.087 248.566 492.403 247.168 493.595 245.852L509.547 228.544C511.109 226.858 510.739 224.268 508.766 222.953C490.841 211.071 471.312 200.094 450.263 190.227C448.536 189.405 446.398 189.652 445 190.762C438.258 196.148 430.94 201.163 423.046 205.768Z" fill="#666666"/>
<path d="M434.436 207.538C432.504 208.689 432.586 211.156 434.559 212.265C448.743 220.2 462.351 228.299 475.384 236.604C477.069 237.673 479.084 238.824 481.057 238.29C482.332 237.961 483.278 236.974 484.182 236.07L495.775 223.818C496.927 222.626 496.68 220.735 495.241 219.789C482.249 211.238 468.271 203.427 453.348 196.479C452.114 195.903 450.634 196.067 449.648 196.89C445.002 200.713 439.904 204.29 434.436 207.538Z" fill="white"/>
<path d="M451.544 200.179C451.133 200.015 450.681 199.809 450.229 199.891C449.818 199.974 449.447 200.221 449.119 200.467C448.42 201.002 447.762 201.536 447.104 202.153C446.446 202.769 445.871 203.468 445.254 204.085C444.761 204.578 444.185 204.989 443.651 205.442C442.417 206.387 441.184 207.374 439.91 208.32C439.17 208.895 438.512 209.224 438.059 209.882C437.895 210.128 437.731 210.375 437.607 210.745C438.635 211.567 439.745 212.225 440.896 212.883C441.554 213.253 442.459 214.199 443.281 213.952C443.774 213.788 444.226 213.13 444.555 212.76C444.638 212.677 444.72 212.595 444.802 212.513C445.09 213.212 445.377 213.952 445.706 214.651C445.871 213.705 445.871 212.719 445.871 211.773C445.871 211.691 445.871 211.567 445.871 211.485C445.994 211.362 446.159 211.198 446.282 211.074C447.885 209.43 449.489 207.785 451.051 206.1C451.667 205.442 452.284 204.907 452.983 204.373C453.23 204.208 455.039 202.071 455.121 202.112C453.97 201.454 452.819 200.714 451.544 200.179Z" fill="#CCCCCC"/>
<path d="M473.544 210.539C472.968 210.539 472.352 210.457 471.776 210.416C472.31 209.717 472.886 209.018 473.42 208.278C472.433 207.867 471.406 207.456 470.419 207.045C470.296 207.003 470.131 206.921 469.967 206.921C469.638 206.921 469.433 207.209 469.227 207.456C467.911 209.183 465.815 210.745 464.499 212.512C463.43 213.951 463.142 214.363 461.621 216.459C462.402 216.829 464.376 218.145 465.157 218.515C465.28 217.898 465.774 217.405 466.185 216.953C467.788 215.308 469.309 213.54 470.748 211.731C471.159 211.69 471.611 211.608 472.023 211.485C472.598 211.279 473.092 210.95 473.544 210.539Z" fill="#B8CDD8"/>
<path d="M456.965 209.347C456.389 209.018 455.773 208.73 455.197 208.401C455.115 208.36 455.033 208.32 454.909 208.32C454.745 208.32 454.622 208.402 454.54 208.525C452.032 210.786 449.565 213.458 447.181 215.843C447.674 216.131 449.318 217.076 449.812 217.364C449.935 217.446 450.058 217.529 450.223 217.529C450.469 217.529 450.634 217.323 450.757 217.117C450.84 216.994 450.922 216.871 451.045 216.747C451.333 217.405 451.579 218.022 451.867 218.679C452.032 217.734 452.032 216.747 452.032 215.802C452.032 215.719 452.032 215.596 452.032 215.514C453.553 213.376 455.197 211.321 456.965 209.347Z" fill="#CCCCCC"/>
<path d="M472.461 221.505C471.68 221.053 470.899 220.56 470.118 220.107C470.036 220.066 469.912 219.984 469.789 219.984C469.707 219.984 469.624 220.066 469.542 220.148C468.309 221.341 467.075 222.533 465.842 223.725C464.938 224.589 464.033 225.493 463.54 226.644C464.321 227.22 465.184 227.754 466.048 228.206C466.171 228.289 466.294 228.33 466.418 228.33C466.582 228.33 466.705 228.248 466.829 228.165C467.158 227.919 467.446 227.672 467.692 227.384C467.98 227.672 468.268 227.96 468.556 228.248C468.638 228.33 468.761 228.412 468.884 228.371C468.843 227.672 468.761 226.932 468.679 226.233C470.036 224.794 471.31 223.191 472.461 221.505Z" fill="#CCCCCC"/>
<path d="M487.344 219.135C487.878 218.312 488.372 217.449 488.906 216.627C487.632 216.133 486.398 215.64 485.124 215.105C485.001 215.064 484.918 215.023 484.795 215.023C484.672 215.023 484.548 215.147 484.425 215.229C481.136 218.353 479.286 222.752 476.285 226.165C476.202 226.247 476.12 226.37 476.12 226.494C476.12 226.576 476.202 226.658 476.285 226.74C477.354 227.85 478.546 228.919 479.779 229.865C481.506 227.85 483.15 225.754 484.754 223.616C485.37 222.794 485.987 221.971 486.11 220.985C486.933 221.026 487.796 220.943 488.577 220.738C488.659 220.409 488.248 220.162 487.878 220.08C487.549 219.998 487.138 219.792 487.179 219.422C487.221 219.34 487.303 219.258 487.344 219.135Z" fill="#B8CDD8"/>
<path d="M555.651 548.442C559.844 548.4 564.038 548.358 568.19 548.317C571.521 481.963 574.11 405.493 577.441 339.138C564.737 336.753 551.992 337.041 539.206 338.028C534.971 388.062 546.812 446.853 550.594 497.009C551.91 514.317 552.362 531.996 555.651 548.442Z" fill="#97A8B2"/>
<path d="M570.198 547.365C563.25 546.792 556.261 547.12 549.354 548.231C544.05 552.178 538.253 555.424 532.128 557.932C530.36 558.631 528.469 559.33 527.153 560.727C525.837 562.127 525.303 564.468 526.536 565.949C527.605 567.224 529.497 567.388 531.182 567.388C544.009 567.511 556.878 566.442 569.499 564.14C570.239 564.017 571.061 563.853 571.596 563.277C572.048 562.826 572.253 562.249 572.418 561.632C573.692 556.863 572.87 551.56 570.198 547.365Z" fill="#AA6A64"/>
<path d="M559.297 190.799C561.681 187.468 563.244 183.028 563.614 177.725C564.23 167.94 563.737 157.785 559.708 148.823C555.062 138.504 543.304 128.267 531.094 130.898C516.787 133.981 517.691 152.441 518.678 164.692C519.459 174.436 522.954 184.344 530.148 190.922C540.92 200.83 552.966 199.555 559.297 190.799Z" fill="#A88B71"/>
<path d="M559.994 174.441C562.173 176.373 565.585 176.414 567.764 174.523C569.943 172.673 570.724 169.055 569.491 166.383C573.15 163.258 573.89 156.886 571.094 152.857C574.63 151.582 574.548 146.238 573.766 142.291C573.479 140.811 573.191 139.331 572.862 137.892C572.533 136.206 572.163 134.479 571.711 132.794C571.094 130.615 570.272 128.395 568.669 126.874C567.641 125.887 565.215 126.216 565.749 127.573C566.942 124.243 564.598 120.419 561.556 118.98C558.514 117.541 555.019 117.87 551.73 118.199C550.744 116.349 548.523 115.691 546.509 115.856C544.535 116.02 542.603 116.76 540.63 116.966C536.93 117.336 533.312 115.65 529.653 114.992C525.994 114.293 521.512 115.033 519.704 118.569C519.251 119.474 519.662 121.159 520.485 120.666C517.73 120.584 514.729 121.899 513.619 124.613C512.509 127.326 514.441 131.191 517.155 130.944C514.359 130.533 511.153 131.766 510.125 134.562C509.056 137.358 511.522 141.181 514.195 140.359C513.496 139.783 512.386 140.729 512.427 141.674C512.468 142.62 513.167 143.401 513.907 143.935C517.73 146.69 523.527 145.457 526.035 141.345C526.816 143.689 529.571 144.675 531.791 144.141C534.052 143.606 535.902 141.962 537.67 140.4C541.123 142.661 545.769 142.661 549.263 140.4C549.633 142.702 552.347 144.141 554.279 143.113C554.156 145.539 554.032 147.923 553.909 150.349C554.855 150.39 555.8 150.431 556.746 150.472C554.361 151.994 552.963 155.077 553.333 158.037C554.238 158.859 555.553 158.037 556.705 157.585C559.582 156.392 561.186 159.352 561.515 162.641C561.885 165.93 560.898 168.603 557.856 168.15C560.652 168.15 562.09 172.591 559.994 174.441Z" fill="#C69C6D"/>
<path d="M551.569 200.547C540.427 200.341 530.807 209.221 526.572 219.499C513.047 252.43 527.929 260.159 525.791 295.105C523.201 336.916 508.36 388.8 506.509 430.652C506.181 437.848 509.511 442.78 512.512 448.537C544.785 446.973 577.181 442.739 609.249 438.711C609.66 392.419 603.699 371.778 591.53 327.131C586.062 307.027 570.809 310.234 570.234 289.431C569.864 276.193 580.512 239.48 577.634 226.571C574.756 213.62 564.807 200.793 551.569 200.547Z" fill="#537082"/>
<path d="M547.771 257.328C544.688 255.396 541.358 253.792 537.945 252.559C537.493 252.394 537 252.23 536.589 252.436C536.136 252.641 535.931 253.134 535.766 253.628C533.135 261.233 531.285 269.127 530.216 277.103C524.83 272.211 519.034 267.729 513.196 263.371C498.601 252.394 483.718 241.746 468.589 231.468C466.04 229.741 463.409 227.974 460.366 227.563C457.324 227.152 453.829 228.549 452.843 231.427C474.879 258.52 501.931 281.543 532.231 298.892C534.451 300.167 535.396 300.455 537.041 302.264C537.658 302.921 538.768 302.963 539.59 302.551C540.412 302.14 540.987 301.359 541.481 300.619C545.428 294.74 546.62 287.504 547.73 280.515C548.47 275.828 549.128 271.388 551.101 267.03C551.636 265.756 552.334 264.481 552.294 263.084C552.252 260.576 549.95 258.685 547.771 257.328Z" fill="#A88B71"/>
<path d="M574.012 164.047C576.972 163.76 580.014 165.568 581.248 168.282C581.577 168.981 581.782 169.721 582.317 170.297C584.619 172.722 588.689 168.364 591.814 169.597C594.568 170.666 594.075 174.778 595.555 177.368C596.994 179.917 600.2 180.698 602.955 181.52C605.751 182.384 608.875 183.987 609.204 186.906C609.327 188.016 609.081 189.29 609.821 190.071C610.314 190.565 611.054 190.729 611.712 190.894C617.467 192.374 621.291 199.034 619.687 204.748C619.482 205.488 619.194 206.229 619.277 207.01C619.564 209.065 622.154 209.6 624.046 210.381C629.842 212.724 631.569 220.453 629.842 226.415C629.678 227.031 629.472 227.648 629.637 228.265C629.883 229.169 630.87 229.621 631.652 230.197C634.283 232.17 634.57 236.199 633.173 239.201C631.775 242.202 629.102 244.34 626.553 246.436C628.362 249.314 627.951 253.384 625.649 255.892C623.306 258.359 619.276 259.017 616.275 257.372C615.658 258.893 613.767 259.428 612.123 259.716C608.67 260.291 605.216 260.785 601.722 261.113C599.09 261.36 595.555 260.949 595.02 258.359C592.882 258.893 590.662 259.387 588.442 259.099C586.263 258.811 584.043 257.537 583.262 255.481C582.769 254.165 582.851 252.562 581.947 251.452C580.878 250.219 578.863 250.219 577.548 249.232C575.944 247.999 575.862 245.573 576.191 243.558C576.561 241.544 577.178 239.447 576.52 237.515C575.697 235.089 573.149 233.815 571.504 231.841C569.736 229.745 569.119 226.743 569.901 224.071C570.476 222.057 571.833 220.084 571.298 218.069C570.846 216.384 569.284 215.314 568.256 213.917C566.241 211.121 566.612 207.339 567.269 203.968C567.516 202.652 567.804 201.213 567.269 200.021C566.94 199.322 566.365 198.746 565.913 198.129C564.309 195.95 564.104 192.867 565.419 190.524C565.995 189.496 566.817 188.591 567.187 187.44C567.557 186.248 567.393 184.973 567.228 183.781C566.817 180.986 566.406 178.149 565.995 175.353C565.337 170.625 569.119 164.5 574.012 164.047Z" fill="#C69C6D"/>
<defs>
<linearGradient id="paint0_linear_3_116" x1="509.21" y1="562.696" x2="616.359" y2="567.972" gradientUnits="userSpaceOnUse">
<stop stop-color="white"/>
<stop offset="1"/>
</linearGradient>
<linearGradient id="paint1_linear_3_116" x1="509.208" y1="562.696" x2="616.357" y2="567.972" gradientUnits="userSpaceOnUse">
<stop/>
<stop offset="1"/>
</linearGradient>
</defs>
</svg>
