<svg width="919" height="563" viewBox="0 0 919 563" fill="none" xmlns="http://www.w3.org/2000/svg">
<rect x="27" y="29" width="775" height="534" fill="#111827"/>
<rect x="2" y="2" width="769" height="531" fill="white" stroke="#111827" stroke-width="4"/>
<rect width="773" height="72" fill="#111827"/>
<circle cx="29.5" cy="36.5" r="7.5" fill="#FF2F00"/>
<circle cx="59.5" cy="36.5" r="7.5" fill="#FDC62D"/>
<circle cx="89.5" cy="36.5" r="7.5" fill="#3AE352"/>
<path d="M40.7926 106.455V121H38.598V106.455H40.7926ZM45.9418 114.523V121H43.8182V110.091H45.8565V111.866H45.9915C46.2424 111.289 46.6354 110.825 47.1705 110.474C47.7102 110.124 48.3897 109.949 49.2088 109.949C49.9522 109.949 50.6032 110.105 51.1619 110.418C51.7206 110.725 52.1539 111.185 52.4616 111.795C52.7694 112.406 52.9233 113.161 52.9233 114.061V121H50.7997V114.317C50.7997 113.526 50.5938 112.908 50.1818 112.463C49.7699 112.013 49.2041 111.788 48.4844 111.788C47.992 111.788 47.554 111.895 47.1705 112.108C46.7917 112.321 46.491 112.634 46.2685 113.045C46.0507 113.453 45.9418 113.945 45.9418 114.523ZM64.7131 110.091L60.7571 121H58.4844L54.5213 110.091H56.8011L59.5639 118.486H59.6776L62.4332 110.091H64.7131ZM70.9329 121.22C69.9102 121.22 69.0176 120.986 68.2553 120.517C67.493 120.048 66.9012 119.393 66.4798 118.55C66.0584 117.707 65.8477 116.722 65.8477 115.595C65.8477 114.464 66.0584 113.474 66.4798 112.626C66.9012 111.779 67.493 111.121 68.2553 110.652C69.0176 110.183 69.9102 109.949 70.9329 109.949C71.9556 109.949 72.8481 110.183 73.6104 110.652C74.3728 111.121 74.9646 111.779 75.386 112.626C75.8074 113.474 76.0181 114.464 76.0181 115.595C76.0181 116.722 75.8074 117.707 75.386 118.55C74.9646 119.393 74.3728 120.048 73.6104 120.517C72.8481 120.986 71.9556 121.22 70.9329 121.22ZM70.94 119.438C71.6029 119.438 72.1521 119.262 72.5877 118.912C73.0233 118.562 73.3453 118.095 73.5536 117.513C73.7667 116.93 73.8732 116.289 73.8732 115.588C73.8732 114.892 73.7667 114.253 73.5536 113.67C73.3453 113.083 73.0233 112.612 72.5877 112.257C72.1521 111.902 71.6029 111.724 70.94 111.724C70.2724 111.724 69.7184 111.902 69.2781 112.257C68.8424 112.612 68.5181 113.083 68.305 113.67C68.0967 114.253 67.9925 114.892 67.9925 115.588C67.9925 116.289 68.0967 116.93 68.305 117.513C68.5181 118.095 68.8424 118.562 69.2781 118.912C69.7184 119.262 70.2724 119.438 70.94 119.438ZM78.3885 121V110.091H80.5121V121H78.3885ZM79.4609 108.408C79.0916 108.408 78.7744 108.285 78.5092 108.038C78.2488 107.787 78.1186 107.489 78.1186 107.143C78.1186 106.793 78.2488 106.495 78.5092 106.249C78.7744 105.998 79.0916 105.872 79.4609 105.872C79.8303 105.872 80.1451 105.998 80.4055 106.249C80.6707 106.495 80.8033 106.793 80.8033 107.143C80.8033 107.489 80.6707 107.787 80.4055 108.038C80.1451 108.285 79.8303 108.408 79.4609 108.408ZM87.9641 121.22C86.9083 121.22 85.9992 120.981 85.2369 120.503C84.4793 120.02 83.8969 119.355 83.4897 118.507C83.0825 117.66 82.8789 116.689 82.8789 115.595C82.8789 114.487 83.0872 113.509 83.5039 112.662C83.9206 111.81 84.5077 111.144 85.2653 110.666C86.0228 110.188 86.9154 109.949 87.9428 109.949C88.7714 109.949 89.5101 110.103 90.1587 110.411C90.8074 110.714 91.3306 111.14 91.7283 111.689C92.1308 112.238 92.3699 112.88 92.4457 113.614H90.3789C90.2653 113.102 90.0049 112.662 89.5977 112.293C89.1952 111.923 88.6554 111.739 87.9783 111.739C87.3865 111.739 86.868 111.895 86.4229 112.207C85.9826 112.515 85.6393 112.955 85.3931 113.528C85.1469 114.097 85.0238 114.769 85.0238 115.545C85.0238 116.341 85.1445 117.027 85.386 117.605C85.6275 118.183 85.9684 118.63 86.4087 118.947C86.8538 119.265 87.377 119.423 87.9783 119.423C88.3808 119.423 88.7454 119.35 89.0721 119.203C89.4035 119.052 89.6805 118.836 89.9031 118.557C90.1303 118.277 90.2889 117.941 90.3789 117.548H92.4457C92.3699 118.254 92.1403 118.884 91.7567 119.438C91.3732 119.991 90.8595 120.427 90.2156 120.744C89.5763 121.062 88.8259 121.22 87.9641 121.22ZM99.4183 121.22C98.3435 121.22 97.4179 120.991 96.6413 120.531C95.8696 120.067 95.273 119.416 94.8516 118.578C94.4349 117.735 94.2266 116.748 94.2266 115.616C94.2266 114.499 94.4349 113.514 94.8516 112.662C95.273 111.81 95.8601 111.144 96.6129 110.666C97.3705 110.188 98.2559 109.949 99.2692 109.949C99.8847 109.949 100.481 110.051 101.059 110.254C101.637 110.458 102.155 110.777 102.614 111.213C103.074 111.649 103.436 112.214 103.701 112.911C103.966 113.602 104.099 114.442 104.099 115.432V116.185H95.4268V114.594H102.018C102.018 114.035 101.904 113.54 101.677 113.109C101.45 112.674 101.13 112.33 100.718 112.08C100.311 111.829 99.8326 111.703 99.2834 111.703C98.6868 111.703 98.166 111.85 97.7209 112.143C97.2805 112.432 96.9396 112.811 96.6982 113.28C96.4614 113.744 96.343 114.248 96.343 114.793V116.036C96.343 116.765 96.4709 117.385 96.7266 117.896C96.987 118.408 97.3492 118.798 97.8132 119.068C98.2772 119.333 98.8194 119.466 99.4396 119.466C99.8421 119.466 100.209 119.409 100.54 119.295C100.872 119.177 101.158 119.002 101.4 118.77C101.641 118.538 101.826 118.251 101.954 117.911L103.964 118.273C103.803 118.865 103.514 119.383 103.097 119.828C102.685 120.268 102.167 120.612 101.542 120.858C100.922 121.099 100.214 121.22 99.4183 121.22ZM114.63 112.754L112.705 113.095C112.624 112.849 112.497 112.615 112.321 112.392C112.151 112.17 111.919 111.987 111.625 111.845C111.332 111.703 110.965 111.632 110.525 111.632C109.923 111.632 109.421 111.767 109.019 112.037C108.616 112.302 108.415 112.645 108.415 113.067C108.415 113.431 108.55 113.725 108.82 113.947C109.09 114.17 109.525 114.352 110.127 114.494L111.86 114.892C112.864 115.124 113.612 115.482 114.104 115.964C114.596 116.447 114.843 117.075 114.843 117.847C114.843 118.5 114.653 119.082 114.275 119.594C113.9 120.1 113.377 120.498 112.705 120.787C112.037 121.076 111.263 121.22 110.382 121.22C109.161 121.22 108.164 120.96 107.392 120.439C106.621 119.913 106.147 119.168 105.972 118.202L108.025 117.889C108.152 118.424 108.415 118.829 108.813 119.104C109.211 119.374 109.729 119.509 110.368 119.509C111.064 119.509 111.621 119.364 112.037 119.075C112.454 118.782 112.662 118.424 112.662 118.003C112.662 117.662 112.534 117.375 112.279 117.143C112.028 116.911 111.642 116.736 111.121 116.618L109.275 116.213C108.257 115.981 107.504 115.612 107.016 115.105C106.533 114.598 106.292 113.957 106.292 113.18C106.292 112.536 106.471 111.973 106.831 111.49C107.191 111.007 107.688 110.631 108.323 110.361C108.957 110.086 109.684 109.949 110.503 109.949C111.682 109.949 112.61 110.205 113.287 110.716C113.964 111.223 114.412 111.902 114.63 112.754Z" fill="black"/>
<rect x="35" y="206" width="340" height="37" fill="#D9D9D9"/>
<rect x="35" y="153" width="340" height="37" fill="#D9D9D9"/>
<rect x="397" y="206" width="340" height="37" fill="#D9D9D9"/>
<rect x="397" y="153" width="340" height="37" fill="#D9D9D9"/>
<rect x="253" y="388" width="241" height="92" fill="#111827"/>
<path d="M312.196 449V419.909H316.585V432.551H331.088V419.909H335.491V449H331.088V436.315H316.585V449H312.196ZM347.892 449.483C346.509 449.483 345.259 449.227 344.142 448.716C343.025 448.195 342.139 447.442 341.486 446.457C340.842 445.473 340.52 444.265 340.52 442.835C340.52 441.604 340.757 440.591 341.23 439.795C341.704 439 342.343 438.37 343.148 437.906C343.953 437.442 344.852 437.092 345.847 436.855C346.841 436.618 347.854 436.438 348.886 436.315C350.193 436.164 351.254 436.041 352.068 435.946C352.883 435.842 353.474 435.676 353.844 435.449C354.213 435.222 354.398 434.852 354.398 434.341V434.241C354.398 433.001 354.047 432.04 353.347 431.358C352.655 430.676 351.623 430.335 350.25 430.335C348.82 430.335 347.693 430.652 346.869 431.287C346.055 431.912 345.491 432.608 345.179 433.375L341.188 432.466C341.661 431.14 342.352 430.07 343.261 429.256C344.18 428.432 345.236 427.835 346.429 427.466C347.622 427.087 348.877 426.898 350.193 426.898C351.064 426.898 351.988 427.002 352.963 427.21C353.948 427.409 354.866 427.778 355.719 428.318C356.58 428.858 357.286 429.63 357.835 430.634C358.384 431.628 358.659 432.92 358.659 434.511V449H354.511V446.017H354.341C354.066 446.566 353.654 447.106 353.105 447.636C352.556 448.167 351.85 448.607 350.989 448.957C350.127 449.308 349.095 449.483 347.892 449.483ZM348.815 446.074C349.99 446.074 350.993 445.842 351.827 445.378C352.67 444.914 353.309 444.308 353.744 443.56C354.189 442.802 354.412 441.992 354.412 441.131V438.318C354.26 438.47 353.967 438.612 353.531 438.744C353.105 438.867 352.617 438.976 352.068 439.071C351.519 439.156 350.984 439.237 350.463 439.312C349.942 439.379 349.507 439.436 349.156 439.483C348.332 439.587 347.58 439.762 346.898 440.009C346.225 440.255 345.686 440.61 345.278 441.074C344.881 441.528 344.682 442.134 344.682 442.892C344.682 443.943 345.07 444.739 345.847 445.278C346.623 445.809 347.613 446.074 348.815 446.074ZM368.563 436.045V449H364.316V427.182H368.393V430.733H368.663C369.165 429.578 369.951 428.65 371.021 427.949C372.1 427.248 373.459 426.898 375.097 426.898C376.584 426.898 377.886 427.21 379.004 427.835C380.121 428.451 380.987 429.369 381.603 430.591C382.219 431.812 382.526 433.323 382.526 435.122V449H378.279V435.634C378.279 434.052 377.867 432.816 377.043 431.926C376.219 431.027 375.088 430.577 373.648 430.577C372.664 430.577 371.788 430.79 371.021 431.216C370.263 431.642 369.662 432.267 369.217 433.091C368.781 433.905 368.563 434.89 368.563 436.045ZM398.407 427.182V430.591H386.489V427.182H398.407ZM389.685 421.955H393.933V442.594C393.933 443.418 394.056 444.038 394.302 444.455C394.548 444.862 394.865 445.141 395.254 445.293C395.651 445.435 396.082 445.506 396.546 445.506C396.887 445.506 397.185 445.482 397.441 445.435C397.697 445.387 397.896 445.349 398.038 445.321L398.805 448.83C398.558 448.924 398.208 449.019 397.754 449.114C397.299 449.218 396.731 449.275 396.049 449.284C394.932 449.303 393.89 449.104 392.924 448.688C391.958 448.271 391.177 447.627 390.58 446.756C389.984 445.884 389.685 444.791 389.685 443.474V421.955ZM409.455 449.483C408.072 449.483 406.822 449.227 405.705 448.716C404.587 448.195 403.702 447.442 403.048 446.457C402.404 445.473 402.082 444.265 402.082 442.835C402.082 441.604 402.319 440.591 402.793 439.795C403.266 439 403.905 438.37 404.71 437.906C405.515 437.442 406.415 437.092 407.409 436.855C408.403 436.618 409.417 436.438 410.449 436.315C411.756 436.164 412.816 436.041 413.631 435.946C414.445 435.842 415.037 435.676 415.406 435.449C415.776 435.222 415.96 434.852 415.96 434.341V434.241C415.96 433.001 415.61 432.04 414.909 431.358C414.218 430.676 413.186 430.335 411.812 430.335C410.383 430.335 409.256 430.652 408.432 431.287C407.617 431.912 407.054 432.608 406.741 433.375L402.75 432.466C403.223 431.14 403.915 430.07 404.824 429.256C405.742 428.432 406.798 427.835 407.991 427.466C409.185 427.087 410.439 426.898 411.756 426.898C412.627 426.898 413.55 427.002 414.526 427.21C415.51 427.409 416.429 427.778 417.281 428.318C418.143 428.858 418.848 429.63 419.398 430.634C419.947 431.628 420.222 432.92 420.222 434.511V449H416.074V446.017H415.903C415.629 446.566 415.217 447.106 414.668 447.636C414.118 448.167 413.413 448.607 412.551 448.957C411.689 449.308 410.657 449.483 409.455 449.483ZM410.378 446.074C411.552 446.074 412.556 445.842 413.389 445.378C414.232 444.914 414.871 444.308 415.307 443.56C415.752 442.802 415.974 441.992 415.974 441.131V438.318C415.823 438.47 415.529 438.612 415.094 438.744C414.668 438.867 414.18 438.976 413.631 439.071C413.081 439.156 412.546 439.237 412.026 439.312C411.505 439.379 411.069 439.436 410.719 439.483C409.895 439.587 409.142 439.762 408.46 440.009C407.788 440.255 407.248 440.61 406.841 441.074C406.443 441.528 406.244 442.134 406.244 442.892C406.244 443.943 406.633 444.739 407.409 445.278C408.186 445.809 409.175 446.074 410.378 446.074ZM425.879 449V427.182H429.984V430.648H430.211C430.609 429.473 431.309 428.55 432.313 427.878C433.326 427.196 434.472 426.855 435.751 426.855C436.016 426.855 436.328 426.865 436.688 426.884C437.058 426.902 437.346 426.926 437.555 426.955V431.017C437.384 430.97 437.081 430.918 436.646 430.861C436.21 430.795 435.774 430.761 435.339 430.761C434.335 430.761 433.44 430.974 432.654 431.401C431.878 431.817 431.262 432.4 430.808 433.148C430.353 433.886 430.126 434.729 430.126 435.676V449H425.879Z" fill="#F3F4F6"/>
<path d="M509.621 462.506L472.309 451.936C471.95 451.835 471.57 451.831 471.209 451.925C470.848 452.019 470.519 452.208 470.255 452.472C469.991 452.736 469.803 453.065 469.709 453.426C469.614 453.787 469.618 454.167 469.72 454.526L480.289 491.793C480.389 492.144 480.579 492.462 480.84 492.717C481.1 492.972 481.423 493.154 481.775 493.247C482.128 493.339 482.498 493.338 482.85 493.244C483.202 493.149 483.524 492.965 483.783 492.708L491.25 485.241L503.851 497.843C504.414 498.404 505.176 498.72 505.971 498.72C506.766 498.72 507.529 498.404 508.092 497.843L515.28 490.643C515.559 490.366 515.78 490.037 515.932 489.674C516.083 489.311 516.161 488.922 516.161 488.528C516.161 488.135 516.083 487.746 515.932 487.383C515.78 487.02 515.559 486.69 515.28 486.413L502.69 473.812L510.503 465.999C510.76 465.743 510.945 465.424 511.042 465.074C511.138 464.724 511.142 464.354 511.053 464.002C510.964 463.65 510.786 463.327 510.535 463.065C510.284 462.803 509.969 462.61 509.621 462.506V462.506Z" fill="white"/>
<path d="M505.971 499.885C505.43 499.885 504.895 499.779 504.395 499.572C503.895 499.365 503.441 499.062 503.058 498.68L491.227 486.871L484.531 493.568C484.136 493.965 483.643 494.252 483.103 494.4C482.563 494.548 481.993 494.551 481.451 494.41C480.909 494.269 480.413 493.988 480.013 493.595C479.614 493.203 479.324 492.712 479.173 492.173L468.603 454.849C468.446 454.3 468.438 453.718 468.581 453.164C468.724 452.611 469.013 452.105 469.417 451.701C469.822 451.297 470.327 451.008 470.881 450.865C471.434 450.722 472.016 450.729 472.566 450.887L509.878 461.457C510.417 461.608 510.908 461.897 511.3 462.297C511.693 462.697 511.974 463.192 512.115 463.734C512.256 464.277 512.253 464.846 512.105 465.387C511.957 465.927 511.67 466.419 511.273 466.814L504.219 473.879L516.028 485.688C516.41 486.069 516.713 486.523 516.92 487.022C517.127 487.52 517.234 488.055 517.234 488.595C517.234 489.136 517.127 489.67 516.92 490.169C516.713 490.668 516.41 491.121 516.028 491.503L508.829 498.702C508.067 499.454 507.042 499.879 505.971 499.885V499.885ZM491.227 484.17C491.375 484.171 491.521 484.2 491.657 484.258C491.793 484.315 491.916 484.399 492.02 484.505L504.621 497.095C504.978 497.437 505.454 497.628 505.949 497.628C506.444 497.628 506.92 497.437 507.277 497.095L514.476 489.907C514.651 489.731 514.789 489.522 514.883 489.292C514.977 489.062 515.025 488.816 515.023 488.567C515.025 488.321 514.978 488.076 514.884 487.848C514.79 487.62 514.651 487.413 514.476 487.239L501.875 474.638C501.667 474.429 501.551 474.146 501.551 473.851C501.551 473.556 501.667 473.274 501.875 473.064L509.688 465.252C509.81 465.132 509.898 464.982 509.944 464.818C509.989 464.653 509.991 464.479 509.948 464.314C509.904 464.149 509.819 463.998 509.699 463.876C509.579 463.755 509.429 463.667 509.264 463.622L471.941 453.052C471.775 453.002 471.599 452.998 471.432 453.041C471.264 453.085 471.112 453.173 470.992 453.298C470.867 453.42 470.777 453.574 470.731 453.742C470.686 453.911 470.688 454.089 470.735 454.258L481.305 491.57C481.351 491.734 481.44 491.882 481.561 492.002C481.682 492.121 481.832 492.207 481.997 492.251C482.162 492.295 482.336 492.295 482.501 492.25C482.665 492.205 482.815 492.116 482.934 491.994L490.401 484.538C490.506 484.423 490.633 484.33 490.775 484.267C490.918 484.203 491.072 484.17 491.227 484.17V484.17Z" fill="#111827"/>
<path d="M470.992 444.603C470.696 444.603 470.412 444.486 470.203 444.276C469.993 444.067 469.876 443.783 469.876 443.487V435.116C469.876 434.82 469.993 434.536 470.203 434.327C470.412 434.118 470.696 434 470.992 434C471.288 434 471.572 434.118 471.781 434.327C471.991 434.536 472.108 434.82 472.108 435.116V443.487C472.108 443.783 471.991 444.067 471.781 444.276C471.572 444.486 471.288 444.603 470.992 444.603Z" fill="white"/>
<path d="M476.997 447.148C476.849 447.147 476.703 447.117 476.567 447.06C476.431 447.002 476.308 446.919 476.204 446.813C475.996 446.604 475.88 446.321 475.88 446.026C475.88 445.731 475.996 445.448 476.204 445.239L482.131 439.324C482.231 439.207 482.354 439.112 482.493 439.045C482.631 438.978 482.782 438.941 482.936 438.935C483.089 438.929 483.243 438.955 483.386 439.011C483.529 439.067 483.659 439.152 483.768 439.261C483.877 439.369 483.962 439.5 484.018 439.643C484.074 439.786 484.1 439.939 484.094 440.093C484.088 440.247 484.05 440.398 483.983 440.536C483.916 440.674 483.821 440.798 483.705 440.898L477.789 446.813C477.686 446.919 477.562 447.002 477.426 447.06C477.29 447.117 477.144 447.147 476.997 447.148V447.148Z" fill="white"/>
<path d="M459.06 465.006C458.914 465.007 458.768 464.979 458.632 464.923C458.496 464.868 458.372 464.786 458.268 464.682C458.06 464.473 457.943 464.19 457.943 463.895C457.943 463.601 458.06 463.318 458.268 463.109L464.184 457.182C464.394 456.972 464.679 456.854 464.976 456.854C465.273 456.854 465.558 456.972 465.768 457.182C465.979 457.392 466.097 457.677 466.097 457.974C466.097 458.272 465.979 458.557 465.768 458.767L459.842 464.682C459.634 464.889 459.353 465.005 459.06 465.006V465.006Z" fill="white"/>
<path d="M462.487 453.097H454.116C453.82 453.097 453.536 452.979 453.327 452.77C453.118 452.561 453 452.277 453 451.981C453 451.685 453.118 451.401 453.327 451.192C453.536 450.982 453.82 450.865 454.116 450.865H462.487C462.783 450.865 463.067 450.982 463.276 451.192C463.486 451.401 463.603 451.685 463.603 451.981C463.603 452.277 463.486 452.561 463.276 452.77C463.067 452.979 462.783 453.097 462.487 453.097Z" fill="white"/>
<path d="M464.976 447.148C464.828 447.147 464.682 447.117 464.546 447.06C464.41 447.002 464.287 446.919 464.184 446.813L458.268 440.898C458.151 440.798 458.056 440.674 457.989 440.536C457.922 440.398 457.885 440.247 457.879 440.093C457.873 439.939 457.899 439.786 457.955 439.643C458.011 439.5 458.096 439.369 458.205 439.261C458.314 439.152 458.444 439.067 458.587 439.011C458.73 438.955 458.883 438.929 459.037 438.935C459.191 438.941 459.342 438.978 459.48 439.045C459.619 439.112 459.742 439.207 459.842 439.324L465.768 445.239C465.976 445.448 466.093 445.731 466.093 446.026C466.093 446.321 465.976 446.604 465.768 446.813C465.665 446.919 465.542 447.002 465.406 447.06C465.27 447.117 465.124 447.147 464.976 447.148V447.148Z" fill="white"/>
<rect x="567" y="145" width="348" height="200" fill="white" stroke="#111827" stroke-width="8"/>
<path d="M568 147L741.5 277L915 147" stroke="#111827" stroke-width="8"/>
<path d="M571 343L689 236" stroke="#111827" stroke-width="8"/>
<path d="M916 343L798 231" stroke="#111827" stroke-width="8"/>
<path d="M541 202H315M541 266H215M497 318H294" stroke="#111827" stroke-width="8"/>
</svg>
